<svg width="64" height="64" viewBox="0 0 64 64" fill="none" xmlns="http://www.w3.org/2000/svg">
  <rect width="64" height="64" rx="18" fill="#3126A6"/>
  <path d="M11 17C11 13.6863 13.6863 11 17 11H33.1394C35.0526 11 36.8433 11.9136 37.9596 13.4571L47.6622 26.8663C49.1629 28.9398 49.1629 31.7364 47.6622 33.8099L37.9596 47.2191C36.8433 48.7625 35.0526 49.6762 33.1394 49.6762H17C13.6863 49.6762 11 46.9899 11 43.6762V17Z" fill="white"/>
  <rect x="18" y="18" width="8" height="8" rx="2" fill="#F6EF47"/>
  <rect x="18" y="28" width="8" height="8" rx="2" fill="#F6EF47"/>
  <rect x="18" y="40" width="20" height="6" rx="2" fill="#F6EF47"/>
  <path d="M31 18H35.7909C36.7631 18 37.6781 18.4724 38.2449 19.2673L43.8782 27.1702C44.5771 28.1503 44.5771 29.4733 43.8782 30.4534L38.2449 38.3563C37.6781 39.1512 36.7631 39.6236 35.7909 39.6236H31V18Z" fill="#F6EF47"/>
</svg>
